<?xml version="1.0" encoding="utf-8"?>
<!-- Generator: Adobe Illustrator 25.0.1, SVG Export Plug-In . SVG Version: 6.00 Build 0)  -->
<svg version="1.1" id="Layer_1" xmlns="http://www.w3.org/2000/svg" xmlns:xlink="http://www.w3.org/1999/xlink" x="0px" y="0px"
	 viewBox="0 0 55.4 55.4" style="enable-background:new 0 0 55.4 55.4;" xml:space="preserve">
<style type="text/css">
	.st0{fill:#F2F2F3;}
	.st1{fill:#59A96A;}
	.st2{fill:#0C1B3F;}
	.st3{fill:#426B6A;}
</style>
<g id="Layer_4">
</g>
<g id="Layer_5">
	<circle class="st0" cx="27.7" cy="27.7" r="27.7"/>
	<g>
		<polygon class="st1" points="9.9,17.4 5.1,14.6 27.7,1.6 50.3,14.8 46,17.2 27.6,6.7 19.5,11.6 33.2,11.6 39.3,15.1 14,15.1 		"/>
		<path class="st2" d="M10.6,17.8l-5.5-3.1v26.1l4.5,2.8L9.8,32l17.8,10l0.2-14.3L10.6,17.8z M23.5,35.4L9.9,27.9v-5.3l13.6,7.8
			V35.4z"/>
		<polygon class="st3" points="46,17.2 50.3,14.8 50.3,40.7 46.1,43.2 46,33.2 32.6,40.7 32.4,50.9 27.4,53.9 27.7,27.7 32.3,24.9 
			32.3,34.9 46.1,27.9 		"/>
	</g>
</g>
</svg>
